<?xml version="1.0" standalone="no"?>
<!DOCTYPE svg PUBLIC "-//W3C//DTD SVG 20010904//EN"
 "http://www.w3.org/TR/2001/REC-SVG-20010904/DTD/svg10.dtd">
<svg version="1.0" xmlns="http://www.w3.org/2000/svg"
 width="984.000000pt" height="216.000000pt" viewBox="0 0 984.000000 216.000000"
 preserveAspectRatio="xMidYMid meet">
<metadata>
Created by potrace 1.14, written by Peter Selinger 2001-2017
</metadata>
<g transform="translate(0.000000,216.000000) scale(0.100000,-0.100000)"
fill="#005ca5" stroke="none">
<path d="M994 2079 c-34 -10 -64 -38 -69 -66 -2 -10 -4 -67 -5 -128 l-1 -110
-47 -22 c-138 -65 -358 -314 -350 -398 3 -29 39 -58 174 -141 16 -9 13 -17
-28 -80 -40 -62 -409 -642 -552 -868 -53 -85 -56 -94 -56 -153 l0 -63 176 0
175 0 -3 27 c-2 21 -11 29 -45 41 -24 7 -43 18 -43 23 0 9 54 90 328 492 63
92 117 167 122 165 4 -2 151 -168 328 -369 176 -202 326 -370 332 -374 9 -5
230 175 238 195 1 3 -6 14 -17 24 -17 16 -22 16 -56 2 -21 -9 -41 -16 -45 -16
-4 0 -153 165 -329 366 -329 374 -329 374 -297 417 13 17 16 16 62 -13 27 -17
54 -28 61 -26 7 3 148 -149 335 -362 178 -202 329 -375 335 -383 10 -12 10
-24 2 -48 -26 -74 35 -161 112 -161 80 0 129 47 129 124 0 33 -7 52 -25 74
l-25 29 130 114 c102 89 127 116 118 126 -8 10 -8 20 0 36 12 23 15 41 13 68
-1 15 -223 276 -282 332 -32 29 -83 36 -121 16 -17 -9 -26 -5 -62 30 l-42 41
-122 -106 -121 -107 39 -46 c36 -42 38 -47 23 -63 -8 -9 -18 -32 -22 -49 -7
-33 -7 -33 -183 168 -137 157 -175 206 -171 222 5 21 -27 60 -77 92 l-24 16
47 101 c106 224 114 377 26 465 -21 22 -39 48 -39 58 0 16 8 19 50 19 57 0 64
8 75 87 l7 52 46 3 c39 3 47 6 47 23 0 17 -8 20 -45 23 -41 3 -47 6 -57 33
-19 49 -93 70 -169 48z"/>
<path d="M2632 1467 c-6 -6 -55 -136 -109 -287 -114 -319 -120 -358 -68 -431
17 -24 50 -53 74 -66 45 -23 46 -23 375 -21 l330 3 89 250 c106 298 197 557
197 561 0 6 -286 3 -296 -4 -6 -4 -41 -92 -78 -197 -37 -104 -84 -236 -104
-292 l-37 -103 -142 0 -142 0 44 123 c24 67 70 198 104 291 34 93 61 173 61
178 0 14 -286 10 -298 -5z"/>
<path d="M3633 1468 c-5 -7 -58 -150 -118 -318 -59 -168 -123 -347 -141 -397
l-34 -93 349 0 348 0 37 103 c20 56 36 105 36 110 0 4 -85 7 -190 7 -114 0
-190 4 -190 10 0 5 45 135 100 290 55 155 100 285 100 290 0 16 -285 13 -297
-2z"/>
<path d="M4093 1468 c-11 -14 -73 -183 -73 -199 0 -5 58 -9 140 -9 88 0 140
-4 140 -10 0 -6 -45 -137 -100 -291 -55 -155 -100 -286 -100 -290 0 -5 67 -9
149 -9 l149 0 15 43 c18 50 175 490 189 529 l10 27 125 3 126 3 38 108 39 107
-419 0 c-323 0 -421 -3 -428 -12z"/>
<path d="M4986 1448 c-15 -38 -35 -92 -175 -486 -56 -156 -101 -288 -101 -293
0 -5 66 -9 149 -9 l148 0 39 108 39 107 76 3 77 3 54 -108 55 -108 151 -3 c84
-1 152 0 152 2 0 3 -32 58 -70 122 -39 64 -70 117 -68 118 2 2 24 10 49 19
118 44 195 124 225 234 36 133 -24 249 -157 300 -37 14 -92 17 -337 21 l-292
4 -14 -34z m485 -206 c31 -26 30 -76 -3 -108 -32 -33 -81 -43 -200 -44 -79 0
-98 3 -98 14 0 8 12 47 26 85 l26 71 113 0 c95 0 116 -3 136 -18z"/>
<path d="M5960 1083 c-156 -219 -288 -404 -293 -410 -7 -10 26 -13 159 -13
l169 0 48 75 48 75 153 0 154 0 7 -42 c3 -24 9 -58 12 -75 l5 -33 154 0 c85 0
154 4 154 9 0 5 -9 53 -21 107 -11 55 -47 231 -80 393 -33 162 -62 298 -65
303 -3 4 -76 8 -163 8 l-158 0 -283 -397z m399 -11 c7 -46 11 -85 9 -85 -2 -1
-38 0 -80 3 l-77 5 61 93 c40 61 64 89 68 80 4 -7 13 -51 19 -96z"/>
<path d="M7330 1469 c-269 -23 -468 -129 -549 -293 -104 -211 -44 -411 148
-488 54 -22 68 -23 345 -23 l288 0 68 190 c37 105 71 200 75 213 l7 23 -153
-3 -152 -3 -35 -102 -36 -103 -104 0 -104 0 -33 33 c-79 79 -44 226 69 292 72
41 113 48 355 54 l233 6 34 94 c19 51 34 99 34 106 0 11 -42 13 -197 13 -109
0 -241 -4 -293 -9z"/>
<path d="M8157 1448 c-42 -57 -543 -762 -551 -775 -6 -10 29 -13 159 -13 l166
0 47 75 47 75 156 0 157 0 6 -57 c4 -32 9 -66 12 -75 5 -17 42 -18 599 -18
l593 0 36 98 c20 54 36 104 36 110 0 8 -63 12 -222 14 l-221 3 179 122 c98 67
221 151 273 187 l95 65 37 106 c21 57 34 107 30 110 -5 2 -190 4 -412 2 l-404
-2 -37 -100 c-20 -55 -37 -103 -37 -107 -1 -4 87 -9 195 -10 l195 -3 -101 -70
c-55 -38 -178 -124 -272 -190 l-171 -121 -38 -104 c-34 -97 -38 -103 -45 -75
-4 17 -42 199 -83 405 l-76 375 -162 3 -162 2 -24 -32z m145 -421 l3 -39 -78
-1 c-91 -2 -90 -9 -9 115 l57 87 12 -62 c6 -34 13 -79 15 -100z"/>
</g>
</svg>
